<?xml version="1.0" standalone="no"?>
<!DOCTYPE svg PUBLIC "-//W3C//DTD SVG 20010904//EN"
 "http://www.w3.org/TR/2001/REC-SVG-20010904/DTD/svg10.dtd">
<svg version="1.0" xmlns="http://www.w3.org/2000/svg"
 width="3507.000000pt" height="3507.000000pt" viewBox="0 0 3507.000000 3507.000000"
 preserveAspectRatio="xMidYMid meet">

<g transform="translate(0.000000,3507.000000) scale(0.100000,-0.100000)"
fill="#000000" stroke="none">
<path d="M16965 35059 c-2840 -91 -5641 -883 -8120 -2297 -925 -528 -1825
-1158 -2645 -1852 -720 -609 -1431 -1320 -2040 -2040 -1206 -1424 -2179 -3033
-2877 -4758 -1041 -2573 -1456 -5355 -1213 -8117 222 -2515 985 -4953 2238
-7150 528 -925 1158 -1825 1852 -2645 609 -719 1321 -1431 2040 -2040 1424
-1206 3033 -2179 4758 -2877 2573 -1041 5355 -1456 8117 -1213 2515 222 4953
985 7150 2238 925 528 1825 1158 2645 1852 720 609 1431 1320 2040 2040 1206
1424 2179 3033 2877 4758 1041 2573 1456 5355 1213 8117 -222 2515 -985 4953
-2238 7150 -528 925 -1158 1825 -1852 2645 -609 719 -1321 1431 -2040 2040
-1424 1206 -3033 2179 -4758 2877 -2267 917 -4701 1350 -7147 1272z m1225
-1679 c2517 -104 4948 -792 7130 -2018 3263 -1834 5768 -4758 7078 -8263 131
-351 382 -1108 382 -1153 0 -3 -84 -49 -188 -101 -103 -52 -342 -174 -532
-271 -190 -97 -510 -259 -713 -360 -202 -100 -380 -192 -395 -202 -15 -11
-200 -106 -412 -213 -212 -106 -414 -211 -450 -233 -36 -21 -234 -123 -440
-226 -206 -103 -391 -197 -410 -209 -19 -12 -246 -127 -505 -256 -258 -128
-537 -269 -620 -314 -259 -139 -539 -278 -574 -286 -19 -4 -67 -21 -105 -37
-39 -17 -98 -41 -131 -54 -33 -14 -112 -49 -175 -79 -63 -30 -152 -63 -197
-74 -45 -11 -135 -44 -200 -74 -140 -64 -126 -59 -378 -140 -280 -91 -391
-123 -460 -137 -33 -7 -76 -19 -95 -27 -38 -15 -277 -83 -404 -114 -43 -11
-167 -35 -275 -55 -108 -19 -230 -44 -271 -54 -76 -19 -254 -43 -410 -55 -47
-3 -128 -13 -180 -21 -55 -8 -253 -19 -475 -25 -476 -14 -715 0 -1070 60 -126
21 -248 44 -270 49 -22 6 -71 16 -110 22 -103 16 -341 84 -495 142 -74 27
-182 68 -240 89 -122 45 -466 215 -660 325 -74 42 -182 114 -240 159 -58 45
-115 88 -128 94 -70 37 -338 269 -508 442 -199 202 -280 297 -362 420 -27 41
-81 111 -119 156 -38 45 -91 121 -119 168 -27 47 -76 127 -108 178 -32 51 -79
135 -103 187 -25 52 -58 116 -74 142 -31 48 -83 163 -125 278 -14 36 -36 86
-49 112 -26 48 -59 136 -100 271 -14 42 -35 110 -49 150 -13 39 -31 99 -39
132 -8 33 -28 114 -45 180 -34 133 -75 374 -91 535 -15 141 -33 559 -25 572 4
6 10 78 15 162 17 301 28 413 48 496 11 47 25 128 31 180 13 118 16 130 94
370 35 107 82 254 104 325 53 170 97 290 127 341 13 23 34 65 45 94 11 29 40
82 63 119 24 36 54 93 67 126 13 33 42 92 65 130 23 39 67 113 98 165 30 52
77 123 104 156 26 34 75 97 108 140 81 106 392 423 484 491 40 31 105 85 145
120 65 59 142 112 441 307 55 35 125 74 155 86 30 12 80 37 110 55 180 110
608 283 790 320 41 8 109 26 150 40 41 13 152 41 245 60 141 30 204 38 370 46
110 5 283 14 385 19 128 8 204 8 245 0 33 -5 141 -17 240 -25 105 -9 208 -23
248 -34 37 -11 101 -25 143 -31 98 -15 352 -84 423 -115 96 -41 234 -93 278
-105 38 -9 449 -212 533 -263 19 -11 91 -62 160 -112 69 -51 158 -113 198
-140 97 -63 220 -175 437 -396 142 -144 197 -209 257 -299 42 -63 108 -155
147 -205 52 -65 98 -142 166 -278 52 -103 95 -193 95 -200 0 -7 18 -43 40 -80
22 -38 49 -101 61 -140 12 -40 34 -105 50 -145 59 -148 118 -378 176 -682 9
-47 17 -119 18 -160 1 -41 7 -136 13 -210 20 -251 -2 -688 -44 -865 -14 -60
-29 -148 -34 -195 -8 -84 -19 -120 -161 -503 -98 -264 -241 -526 -417 -762
-73 -99 -149 -201 -168 -226 -89 -120 -496 -453 -691 -565 -104 -60 -430 -219
-468 -228 -16 -4 -95 -32 -175 -61 -175 -65 -391 -120 -526 -136 -54 -6 -160
-19 -234 -29 -285 -39 -595 -31 -915 24 -322 55 -727 198 -924 324 -42 27
-102 64 -135 81 -170 94 -516 392 -632 546 -21 28 -75 94 -120 147 -45 54 -98
130 -119 170 -20 40 -55 101 -77 134 -61 97 -176 385 -218 546 -25 98 -68 332
-80 438 -12 102 -12 485 0 535 5 22 13 87 16 145 5 83 16 135 50 245 23 77 45
163 49 190 12 87 25 127 81 250 78 171 185 368 258 478 47 70 315 338 405 404
176 129 463 279 601 313 42 11 98 29 123 40 25 11 99 31 164 45 65 13 152 31
193 40 62 14 108 16 275 11 110 -3 236 -13 280 -21 44 -9 121 -23 170 -31 214
-35 473 -149 710 -313 159 -109 340 -277 395 -366 19 -31 63 -94 97 -140 69
-92 85 -122 136 -245 48 -118 92 -259 112 -360 19 -97 23 -466 6 -543 -18 -78
-102 -289 -153 -384 -148 -276 -397 -484 -709 -594 -239 -84 -405 -93 -642
-35 -88 21 -174 50 -215 70 -124 63 -309 245 -358 351 -57 124 -70 339 -27
437 36 80 117 121 206 104 21 -4 64 -31 113 -72 43 -36 96 -75 117 -86 86 -43
291 -62 392 -34 99 26 216 94 284 165 134 138 205 354 174 534 -7 43 -21 94
-32 115 -10 20 -26 61 -36 91 -21 65 -99 158 -230 274 -77 70 -116 95 -227
150 -151 74 -204 92 -338 112 -111 17 -370 20 -456 4 -78 -13 -235 -65 -304
-99 -30 -15 -89 -42 -131 -59 -43 -18 -99 -52 -130 -78 -30 -25 -88 -72 -130
-104 -43 -32 -104 -93 -139 -136 -34 -43 -89 -111 -122 -151 -93 -112 -174
-318 -233 -592 -33 -151 -33 -160 -30 -345 3 -181 8 -231 36 -370 25 -128 80
-282 164 -459 72 -152 210 -329 397 -512 188 -183 304 -267 494 -359 184 -88
303 -128 554 -185 l185 -43 245 1 c186 0 261 4 310 16 36 8 124 25 195 36 165
26 479 135 628 218 135 75 287 168 336 204 90 68 482 457 542 537 127 173 323
542 385 728 19 57 41 148 49 210 8 59 23 146 35 193 20 82 44 317 43 410 -1
25 -2 86 -3 135 -2 162 -90 606 -154 785 -87 241 -204 482 -306 630 -39 58
-110 162 -157 232 -60 92 -121 166 -214 262 -148 153 -223 217 -364 310 -55
36 -134 90 -175 120 -90 65 -155 103 -320 188 -276 141 -480 211 -795 273
-217 42 -331 55 -530 61 -282 10 -541 -8 -734 -50 -86 -19 -172 -37 -191 -41
-19 -3 -69 -17 -110 -30 -41 -13 -113 -34 -160 -45 -47 -12 -132 -42 -190 -67
-208 -91 -383 -175 -443 -212 -34 -21 -111 -69 -172 -106 -167 -103 -240 -163
-517 -422 -116 -109 -166 -166 -364 -408 -48 -59 -254 -392 -254 -411 0 -4
-31 -71 -69 -149 -90 -183 -233 -584 -280 -785 -11 -47 -25 -128 -31 -180 -5
-52 -15 -113 -20 -135 -17 -67 -43 -351 -46 -505 -4 -198 13 -510 36 -655 11
-66 24 -151 30 -190 29 -190 148 -610 205 -725 12 -25 26 -56 30 -70 13 -47
177 -375 220 -440 23 -36 63 -106 89 -155 31 -60 82 -132 152 -215 58 -69 124
-152 146 -185 70 -103 319 -346 527 -514 260 -210 284 -227 373 -272 42 -21
119 -66 170 -100 117 -77 354 -191 573 -276 236 -92 409 -140 677 -188 78 -14
186 -34 238 -45 155 -31 401 -44 735 -36 314 6 433 16 525 42 30 9 115 22 188
29 73 8 172 25 220 39 48 13 167 48 265 76 354 100 754 267 961 400 39 25 109
68 156 94 47 27 146 95 220 151 74 56 162 120 195 142 34 23 67 49 75 58 8 9
41 38 75 63 167 128 378 355 555 600 39 53 100 135 135 182 35 46 92 132 125
190 34 58 82 135 108 172 26 37 56 89 66 115 10 27 34 73 52 103 19 30 52 102
75 160 204 520 207 531 244 706 13 66 36 159 50 209 13 49 36 166 50 259 14
93 32 196 41 230 11 43 14 82 10 131 -3 41 0 104 7 150 10 59 11 127 6 255 -4
96 -5 192 -2 213 3 21 0 145 -7 275 -10 190 -17 255 -36 327 -13 50 -30 133
-38 185 -43 278 -53 318 -164 641 -140 406 -207 580 -244 632 -11 16 -36 65
-55 110 -19 44 -53 108 -77 141 -23 34 -64 100 -90 148 -25 48 -82 134 -125
192 -43 57 -96 133 -116 168 -94 156 -221 305 -509 597 -245 248 -431 410
-545 477 -42 24 -128 84 -191 134 -63 49 -152 111 -198 137 -45 26 -117 70
-160 97 -111 71 -457 239 -603 292 -68 26 -205 74 -304 109 -99 34 -192 67
-206 73 -43 17 -260 70 -356 87 -48 8 -157 29 -241 45 -87 17 -218 34 -305 40
-83 6 -163 13 -177 16 -52 12 -734 3 -903 -11 -340 -30 -468 -51 -762 -130
-49 -13 -121 -29 -160 -36 -38 -6 -108 -26 -155 -44 -47 -18 -137 -51 -200
-73 -147 -51 -351 -130 -364 -141 -6 -5 -46 -23 -88 -40 -94 -37 -289 -135
-458 -228 -149 -82 -189 -108 -295 -183 -44 -31 -106 -71 -137 -89 -31 -18
-86 -58 -121 -90 -35 -31 -99 -85 -143 -118 -44 -34 -105 -83 -135 -110 -30
-27 -88 -74 -129 -105 -129 -95 -403 -376 -520 -533 -57 -77 -129 -169 -160
-205 -78 -91 -101 -123 -158 -222 -28 -47 -74 -116 -104 -152 -30 -36 -59 -76
-65 -88 -6 -13 -66 -135 -133 -271 -119 -243 -187 -397 -235 -527 -13 -36 -40
-108 -61 -160 -104 -269 -193 -553 -209 -665 -9 -70 -28 -95 -69 -95 -26 0
-41 8 -69 39 -41 45 -39 40 -72 198 -14 67 -46 182 -71 255 -25 73 -56 167
-68 208 -28 91 -91 251 -151 380 -23 52 -48 110 -54 129 -6 19 -25 56 -41 82
-17 25 -41 74 -54 107 -13 33 -44 89 -69 124 -25 35 -63 101 -84 148 -22 47
-77 139 -124 205 -46 67 -102 154 -124 194 -22 41 -89 130 -154 204 -140 162
-604 634 -730 743 -50 43 -124 107 -164 142 -40 35 -112 88 -161 118 -48 31
-143 94 -210 141 -66 47 -161 105 -211 130 -49 25 -103 56 -120 68 -47 36
-286 162 -430 227 -132 60 -457 184 -575 220 -36 10 -109 33 -162 49 -150 45
-282 78 -403 99 -60 10 -164 30 -230 44 -66 15 -176 31 -245 36 -69 5 -188 15
-265 21 -173 14 -848 -3 -1036 -26 -249 -31 -803 -159 -973 -225 -57 -22 -137
-50 -177 -61 -104 -29 -592 -259 -709 -335 -36 -23 -94 -55 -130 -71 -36 -17
-132 -78 -215 -138 -82 -59 -172 -118 -198 -131 -45 -23 -136 -98 -273 -224
-33 -31 -98 -86 -142 -122 -92 -74 -311 -301 -477 -493 -60 -71 -135 -156
-166 -190 -31 -34 -75 -97 -98 -141 -23 -43 -75 -126 -117 -184 -42 -58 -91
-138 -110 -178 -19 -40 -53 -101 -76 -135 -23 -34 -56 -95 -74 -137 -17 -42
-44 -100 -59 -130 -35 -69 -88 -197 -182 -440 -88 -229 -112 -303 -147 -465
-15 -66 -45 -195 -66 -286 -27 -112 -40 -188 -40 -236 0 -39 -7 -107 -15 -150
-36 -187 -49 -819 -21 -1013 9 -58 16 -131 16 -164 0 -128 77 -507 169 -836
30 -104 121 -361 148 -414 14 -27 39 -87 58 -135 18 -47 49 -115 68 -151 20
-36 49 -97 66 -137 16 -39 47 -98 68 -130 22 -32 56 -92 76 -133 20 -41 62
-104 92 -140 31 -36 99 -129 152 -208 99 -149 170 -229 463 -522 156 -156 236
-225 365 -315 39 -27 118 -84 177 -127 188 -139 398 -255 693 -384 126 -55
494 -187 625 -225 92 -26 317 -75 435 -93 55 -9 138 -25 185 -36 160 -37 872
-46 1182 -15 32 3 94 17 139 30 47 14 123 28 178 31 99 7 88 4 621 171 80 25
172 60 205 78 33 18 96 47 141 64 83 32 465 252 564 325 254 187 726 632 871
821 38 50 99 129 137 177 69 89 157 235 225 373 22 44 61 116 89 161 63 104
72 130 214 569 97 301 105 341 145 720 5 50 17 140 26 202 13 89 14 122 5 167
-6 30 -9 77 -5 105 7 61 -12 348 -33 496 -30 209 -64 381 -100 510 -20 72 -43
157 -51 190 -15 63 -71 210 -108 285 -12 25 -30 70 -40 100 -29 88 -150 323
-220 426 -36 52 -79 123 -96 157 -46 92 -120 179 -343 406 -218 221 -337 326
-437 386 -35 21 -119 77 -187 123 -67 46 -164 102 -215 124 -50 22 -97 44
-104 49 -20 18 -235 110 -358 155 -181 66 -353 110 -525 134 -85 11 -189 28
-230 37 -98 22 -487 29 -660 14 -418 -39 -569 -77 -1015 -253 -521 -206 -1015
-608 -1358 -1106 -164 -237 -270 -464 -406 -869 -52 -156 -61 -193 -61 -255 0
-40 -9 -112 -20 -161 -13 -58 -20 -131 -21 -215 -2 -210 2 -365 12 -407 4 -22
9 -60 9 -85 0 -97 115 -533 161 -617 16 -28 38 -76 49 -107 10 -30 39 -88 63
-128 24 -40 58 -101 76 -136 17 -34 55 -90 84 -125 28 -34 87 -105 129 -157
106 -131 234 -255 428 -414 133 -110 190 -149 297 -205 255 -135 400 -187 706
-256 306 -69 598 -67 947 4 221 46 362 96 575 206 338 175 652 484 824 810 93
178 139 305 196 547 27 115 43 452 26 553 -27 167 -36 208 -63 305 -16 58 -45
132 -63 165 -19 34 -43 85 -55 115 -29 74 -112 180 -245 315 -150 151 -242
222 -382 293 -223 113 -389 147 -679 139 l-191 -5 -124 -41 c-178 -61 -268
-108 -397 -212 -106 -85 -176 -163 -255 -284 -24 -37 -65 -172 -88 -289 -25
-131 96 -407 224 -507 78 -62 206 -113 331 -130 74 -10 90 -9 171 11 118 29
159 49 236 116 109 93 157 110 225 78 51 -24 92 -80 116 -158 17 -58 20 -85
16 -180 -5 -94 -10 -124 -38 -196 -31 -81 -39 -91 -149 -201 -115 -114 -117
-116 -236 -168 -66 -29 -147 -58 -180 -66 -164 -38 -341 -36 -502 4 -43 10
-94 22 -114 25 -51 9 -313 130 -368 170 -62 46 -299 289 -340 349 -34 50 -88
173 -148 337 -24 67 -38 125 -45 195 -13 138 -17 379 -5 445 20 123 145 469
194 541 17 24 43 69 58 99 78 156 228 324 397 449 107 79 146 104 343 212 206
113 603 214 888 225 127 6 156 4 267 -19 69 -14 170 -33 225 -42 139 -24 358
-97 495 -165 148 -74 347 -197 432 -267 115 -94 370 -363 408 -431 19 -35 50
-86 67 -115 31 -50 53 -93 129 -253 47 -100 103 -255 124 -344 39 -164 70
-319 79 -400 24 -202 26 -255 18 -425 -4 -99 -9 -225 -11 -280 -2 -78 -12
-134 -45 -258 -22 -86 -41 -166 -41 -177 0 -70 -150 -432 -222 -538 -16 -23
-44 -73 -63 -110 -82 -164 -295 -411 -532 -615 -145 -125 -248 -204 -323 -244
-36 -20 -124 -69 -195 -109 -88 -50 -173 -88 -260 -118 -72 -24 -157 -55 -190
-69 -165 -68 -509 -133 -842 -158 -190 -14 -467 0 -623 31 -52 11 -129 24
-170 31 -395 59 -940 285 -1305 542 -93 66 -196 143 -227 172 -31 29 -78 68
-103 86 -25 18 -72 67 -104 108 -33 42 -76 92 -96 111 -21 19 -67 80 -103 135
-35 55 -81 120 -102 145 -60 74 -97 132 -124 200 -15 36 -49 98 -76 140 -27
41 -56 93 -64 116 -7 22 -25 63 -39 90 -13 27 -32 76 -42 109 -9 33 -25 75
-35 95 -48 95 -154 518 -174 700 -9 80 -21 173 -27 207 -24 139 -9 768 21 888
5 22 14 92 20 155 10 100 21 144 85 340 41 124 80 239 86 255 6 17 23 66 38
110 16 44 38 100 50 124 13 24 38 79 56 122 18 43 50 107 72 141 21 35 57 101
81 148 23 47 66 117 95 155 29 39 70 99 91 135 66 112 178 242 406 469 217
216 330 313 487 417 82 54 168 114 193 133 25 19 72 47 105 62 33 15 90 47
126 71 36 23 88 53 115 65 183 81 232 102 254 108 14 4 50 20 80 35 55 28 228
82 305 96 22 4 76 20 121 35 44 15 125 37 180 48 54 11 128 27 164 35 128 30
351 46 632 46 365 -1 558 -13 694 -44 60 -13 145 -30 189 -36 127 -18 320 -68
427 -111 54 -21 103 -39 108 -39 26 0 375 -138 471 -186 58 -30 110 -54 113
-54 3 0 39 -20 79 -44 39 -24 104 -59 142 -79 39 -19 97 -55 130 -79 33 -24
108 -76 167 -116 126 -84 186 -132 329 -261 58 -53 140 -124 181 -158 42 -34
98 -90 124 -125 27 -35 87 -106 135 -158 120 -130 159 -182 219 -285 28 -49
68 -109 89 -134 22 -26 64 -96 94 -156 173 -346 210 -424 227 -474 10 -31 33
-92 50 -136 130 -334 149 -401 229 -785 21 -100 44 -236 61 -360 5 -41 16
-118 24 -170 18 -120 21 -219 18 -557 -1 -231 -5 -286 -22 -362 -11 -50 -20
-120 -20 -156 0 -77 -20 -179 -59 -308 -16 -51 -32 -128 -36 -172 -5 -50 -20
-115 -42 -175 -19 -52 -58 -162 -88 -245 -73 -205 -141 -377 -180 -455 -18
-36 -44 -93 -58 -127 -14 -34 -39 -82 -56 -106 -17 -25 -46 -78 -64 -119 -19
-40 -59 -104 -89 -143 -30 -38 -68 -95 -83 -125 -41 -81 -125 -208 -177 -265
-26 -28 -79 -99 -120 -157 -170 -247 -479 -558 -724 -728 -51 -36 -153 -108
-226 -161 -73 -53 -153 -107 -178 -119 -25 -12 -79 -46 -120 -75 -111 -78
-517 -274 -700 -339 -85 -29 -176 -63 -201 -74 -25 -11 -72 -25 -105 -32 -55
-10 -107 -24 -353 -94 -52 -15 -155 -36 -230 -47 -75 -11 -172 -26 -216 -34
-97 -19 -415 -42 -700 -51 -299 -9 -782 18 -995 56 -58 11 -156 24 -219 30
-63 6 -175 24 -250 40 -75 16 -165 34 -201 40 -36 6 -92 20 -125 30 -33 10
-96 23 -140 30 -43 7 -90 16 -104 22 -14 5 -96 27 -181 48 -85 22 -200 55
-255 75 -55 20 -134 47 -175 60 -41 13 -172 55 -290 93 -118 38 -246 82 -285
99 -38 17 -83 35 -100 39 -16 4 -77 27 -135 52 -58 24 -152 61 -210 83 -94 36
-135 58 -275 148 -22 14 -78 44 -125 67 -47 22 -197 99 -335 171 -137 72 -533
273 -880 448 -657 331 -1113 563 -1130 575 -5 4 -172 90 -370 190 -198 100
-396 202 -440 225 -107 56 -567 291 -895 457 -461 232 -1085 549 -1088 553
-13 12 238 775 380 1154 1310 3505 3815 6429 7078 8263 2169 1219 4618 1915
7100 2017 280 12 1014 12 1290 1z m5975 -16618 c181 -11 373 -34 520 -62 55
-10 127 -22 160 -25 33 -4 94 -15 135 -25 41 -10 99 -21 129 -25 64 -7 195
-37 306 -70 44 -13 152 -39 240 -60 88 -20 216 -54 285 -77 69 -22 190 -60
270 -84 80 -23 205 -65 279 -93 74 -28 148 -55 165 -60 97 -29 326 -115 421
-158 61 -28 171 -75 245 -104 74 -29 140 -59 146 -66 15 -18 1047 -553 1071
-555 15 -2 1372 -690 1398 -708 6 -4 163 -85 350 -180 187 -95 403 -205 480
-245 198 -103 433 -223 703 -361 128 -66 283 -145 345 -177 62 -32 231 -118
377 -192 146 -73 337 -171 426 -217 l160 -83 -43 -145 c-327 -1090 -799 -2199
-1361 -3200 -2042 -3634 -5429 -6314 -9435 -7466 -1908 -548 -3903 -732 -5892
-544 -2179 207 -4327 880 -6245 1958 -3263 1834 -5768 4758 -7078 8263 -175
468 -414 1212 -395 1229 4 4 121 64 258 132 138 69 1051 524 2030 1012 3211
1602 3001 1498 3195 1573 36 14 97 38 135 55 39 16 131 51 205 77 74 27 155
58 180 70 71 33 311 119 423 150 56 16 136 43 177 59 41 17 98 33 125 37 48 6
177 42 395 110 58 18 182 47 275 65 94 17 224 45 290 60 66 16 176 36 244 45
69 9 169 25 223 35 54 11 180 24 281 30 100 6 220 15 267 20 109 13 711 12
810 0 41 -6 143 -14 227 -20 84 -5 210 -21 280 -35 70 -13 173 -31 228 -40 55
-9 136 -26 180 -40 44 -13 109 -30 145 -39 136 -33 301 -86 455 -145 229 -89
253 -99 325 -139 36 -20 101 -55 145 -77 243 -125 360 -196 630 -384 141 -98
319 -256 545 -487 236 -240 353 -380 440 -522 36 -59 98 -147 137 -195 47 -59
81 -113 102 -163 16 -41 46 -97 66 -124 20 -27 47 -77 61 -112 14 -34 38 -80
54 -102 39 -58 83 -148 130 -268 23 -57 58 -143 80 -193 21 -49 41 -105 45
-123 4 -18 29 -101 56 -185 45 -139 63 -206 119 -442 28 -118 50 -246 50 -291
0 -21 10 -86 21 -144 12 -58 24 -157 27 -220 12 -241 -7 -703 -33 -805 -8 -33
-20 -112 -26 -175 -10 -109 -39 -253 -60 -292 -10 -18 -39 -152 -65 -298 -18
-99 -63 -238 -145 -440 -132 -329 -222 -525 -292 -638 -30 -48 -73 -119 -95
-158 -23 -39 -67 -107 -99 -150 -32 -44 -74 -104 -92 -134 -122 -199 -545
-612 -781 -762 -30 -20 -89 -63 -130 -97 -41 -34 -113 -80 -160 -103 -47 -22
-110 -57 -140 -78 -86 -57 -544 -278 -645 -310 -21 -7 -63 -23 -92 -36 -29
-13 -126 -42 -216 -64 -89 -23 -209 -54 -267 -70 -203 -57 -408 -85 -780 -109
-138 -8 -524 12 -648 34 -48 8 -137 22 -199 30 -99 12 -195 35 -453 106 -74
20 -202 65 -390 136 -114 43 -377 174 -440 218 -25 17 -84 53 -132 80 -48 26
-127 79 -175 118 -48 38 -137 103 -198 145 -83 57 -162 126 -318 281 -174 171
-221 225 -282 316 -40 61 -107 151 -149 200 -42 50 -91 122 -111 160 -19 39
-55 101 -79 138 -25 38 -55 94 -66 124 -11 31 -38 86 -60 122 -43 72 -109 239
-158 396 -17 55 -45 145 -62 199 -39 123 -80 293 -80 326 0 14 -6 63 -15 110
-46 268 -48 294 -52 605 -3 301 -2 313 21 410 14 58 27 145 30 205 4 86 12
128 44 230 22 69 45 152 52 185 29 148 160 491 218 572 12 17 37 65 57 109 20
43 62 119 94 169 32 49 70 113 85 142 57 113 273 358 496 561 129 117 219 185
330 249 47 27 113 70 147 95 36 27 92 56 130 68 38 13 95 37 128 55 33 18 119
54 190 80 72 26 142 54 156 61 33 16 259 84 319 95 253 47 341 60 504 75 165
15 225 15 457 6 253 -11 278 -14 456 -52 226 -49 290 -69 637 -201 122 -47
367 -181 458 -252 46 -35 115 -85 153 -112 105 -73 376 -344 445 -445 32 -47
81 -114 110 -150 29 -36 72 -104 95 -151 24 -47 58 -110 76 -140 54 -92 153
-367 199 -554 63 -261 73 -364 67 -716 -3 -156 -10 -300 -16 -319 -5 -19 -19
-100 -31 -180 -24 -167 -28 -180 -108 -395 -89 -241 -185 -434 -263 -530 -36
-44 -92 -119 -123 -168 -63 -95 -129 -159 -246 -239 -41 -28 -100 -73 -130
-98 -77 -65 -131 -100 -235 -153 -49 -25 -117 -59 -150 -76 -50 -26 -270 -97
-433 -141 -50 -13 -292 -46 -413 -55 -57 -5 -116 -2 -184 8 -55 8 -131 18
-170 22 -119 11 -178 24 -337 76 -204 67 -404 165 -545 267 -143 105 -312 267
-388 373 -33 46 -81 110 -107 143 -26 32 -59 88 -73 125 -15 36 -33 77 -42 90
-9 13 -26 56 -38 95 -13 39 -35 101 -49 139 -31 81 -46 201 -51 397 -3 141 2
190 44 400 15 75 95 254 143 316 24 33 65 94 91 136 60 96 120 151 288 263
260 172 469 233 759 223 117 -5 147 -10 230 -37 161 -54 293 -128 378 -210 47
-45 136 -174 162 -235 10 -22 26 -76 34 -119 36 -173 -38 -365 -152 -397 -46
-12 -48 -12 -96 1 -24 7 -63 33 -105 73 -110 104 -243 154 -373 142 -79 -7
-216 -48 -274 -81 -59 -35 -214 -201 -251 -270 -54 -102 -67 -177 -56 -313 10
-114 11 -120 70 -242 59 -122 63 -128 174 -235 112 -108 145 -131 354 -246 44
-23 113 -46 245 -80 19 -5 112 -14 205 -19 190 -10 221 -6 405 50 139 43 276
100 344 144 114 73 298 220 356 284 78 88 230 342 275 462 20 52 52 147 71
210 l35 115 4 245 c5 286 -9 395 -74 595 -45 137 -126 328 -163 383 -125 187
-198 282 -283 371 -273 283 -615 484 -996 586 -114 31 -404 65 -554 65 -132 0
-419 -31 -582 -64 -129 -26 -358 -110 -478 -176 -38 -21 -95 -48 -125 -59 -30
-12 -87 -45 -126 -74 -40 -28 -134 -95 -210 -147 -144 -98 -312 -249 -367
-330 -17 -25 -64 -86 -103 -137 -153 -196 -261 -403 -374 -719 -92 -259 -110
-327 -121 -463 -5 -64 -15 -143 -24 -176 -12 -50 -13 -94 -5 -275 5 -118 15
-258 21 -310 11 -97 66 -347 99 -455 56 -181 166 -449 215 -522 19 -29 45 -77
56 -105 24 -61 36 -79 149 -223 48 -60 110 -144 138 -185 66 -99 297 -325 442
-434 63 -48 146 -111 183 -140 68 -53 327 -202 422 -243 28 -12 91 -40 140
-61 50 -22 173 -66 275 -97 102 -31 212 -66 245 -77 38 -13 131 -27 254 -39
107 -10 230 -26 273 -36 71 -15 105 -15 336 -5 320 14 437 32 816 131 109 28
214 59 235 67 20 9 108 45 196 80 87 36 186 82 220 103 33 21 101 60 152 86
51 27 125 73 165 103 40 30 107 77 148 105 41 27 102 73 135 101 33 29 80 67
105 86 91 69 204 177 249 236 116 153 220 294 258 349 22 33 59 83 82 110 23
28 65 95 93 150 28 55 61 116 73 135 26 42 122 257 158 355 46 125 95 297 127
440 17 77 43 179 56 227 55 192 93 798 63 1011 -5 38 -6 79 -3 92 6 24 -2 100
-31 290 -7 50 -19 126 -25 170 -7 44 -28 131 -47 194 -18 63 -41 144 -49 180
-24 103 -69 241 -97 296 -14 28 -30 71 -37 95 -6 25 -25 69 -41 98 -16 29 -39
76 -50 105 -11 28 -41 80 -65 114 -25 34 -62 100 -83 145 -21 46 -65 119 -98
163 -32 44 -83 116 -113 160 -198 294 -516 618 -783 796 -34 23 -109 77 -167
119 -58 43 -150 102 -205 132 -55 30 -125 71 -155 90 -71 45 -283 152 -380
190 -209 84 -484 170 -665 208 -49 10 -128 28 -175 40 -220 54 -925 79 -1243
45 -363 -40 -629 -86 -786 -137 -354 -115 -519 -172 -562 -193 -26 -14 -94
-43 -151 -65 -57 -23 -128 -56 -158 -74 -30 -19 -84 -48 -120 -66 -36 -18
-119 -67 -185 -110 -66 -42 -148 -91 -181 -109 -59 -31 -139 -93 -287 -224
-40 -34 -94 -80 -122 -102 -88 -69 -355 -337 -418 -420 -33 -44 -83 -105 -112
-135 -68 -73 -121 -146 -187 -255 -30 -50 -85 -131 -121 -180 -37 -50 -77
-115 -89 -145 -12 -30 -43 -93 -70 -140 -26 -46 -48 -89 -48 -94 0 -6 -22 -58
-49 -116 -87 -187 -127 -290 -220 -569 -76 -228 -95 -297 -111 -409 -11 -74
-30 -171 -41 -216 -12 -44 -25 -135 -30 -202 -4 -67 -15 -149 -24 -184 -10
-37 -16 -97 -15 -144 1 -45 1 -220 1 -390 0 -170 2 -312 4 -316 2 -4 13 -79
24 -166 11 -88 25 -199 32 -249 17 -138 66 -364 114 -530 60 -207 156 -487
194 -565 17 -36 31 -71 31 -78 0 -7 15 -43 33 -80 19 -37 40 -83 47 -102 8
-19 27 -60 44 -90 17 -30 50 -97 73 -149 24 -52 69 -133 102 -180 32 -47 82
-128 111 -179 28 -51 87 -135 130 -187 42 -51 95 -122 116 -157 75 -125 156
-217 426 -484 218 -215 298 -288 398 -359 69 -49 172 -126 230 -171 58 -44
175 -124 261 -177 168 -103 678 -366 794 -409 39 -14 115 -45 170 -68 55 -23
159 -57 230 -75 72 -18 143 -38 158 -44 26 -10 114 -34 337 -90 41 -10 154
-29 250 -41 96 -12 207 -29 245 -36 49 -10 186 -16 460 -20 322 -5 415 -4 534
10 79 9 184 16 233 16 58 0 118 7 171 21 45 11 134 30 197 40 63 11 176 36
250 56 74 19 187 48 251 63 64 15 145 38 180 52 35 14 154 61 264 103 110 43
236 95 280 116 44 21 116 53 161 72 44 18 101 48 126 65 24 17 84 49 131 71
48 22 106 55 130 74 23 19 78 53 122 76 44 22 134 82 200 132 66 50 158 117
205 149 117 79 212 156 360 291 197 180 326 307 403 399 39 47 105 121 147
166 42 45 99 122 129 174 30 51 91 136 134 189 51 62 93 126 119 181 22 47 63
117 92 155 72 95 207 372 353 725 117 281 217 582 228 685 15 139 58 215 124
215 62 0 84 -43 136 -265 48 -208 137 -474 207 -619 21 -44 38 -86 38 -94 0
-15 94 -227 141 -317 18 -33 60 -114 94 -180 133 -259 188 -353 245 -423 33
-40 85 -116 116 -169 78 -133 244 -321 566 -639 323 -320 405 -393 576 -509
70 -48 162 -112 204 -143 83 -61 351 -221 482 -288 45 -23 104 -53 131 -67 60
-32 315 -149 365 -167 19 -7 40 -17 45 -21 20 -14 220 -90 289 -109 39 -10
116 -32 171 -49 214 -63 293 -84 375 -101 47 -10 99 -24 115 -30 29 -11 125
-25 512 -75 168 -22 233 -25 535 -26 256 -1 379 3 483 15 77 9 167 16 199 16
102 0 508 83 691 141 50 15 123 35 163 44 40 8 104 28 142 44 38 16 104 39
147 51 43 12 112 36 153 52 140 55 685 332 776 394 49 34 122 80 162 102 69
39 218 148 275 201 15 14 72 59 127 101 105 80 240 194 355 300 84 77 311 329
363 403 70 99 197 261 249 319 29 31 71 94 94 140 23 46 63 117 90 159 27 41
67 116 90 165 23 49 52 105 64 124 12 19 52 94 90 165 63 121 83 166 186 414
21 52 46 133 55 180 8 47 30 138 49 201 19 63 52 177 74 254 28 95 41 157 41
200 0 33 10 104 21 156 30 136 40 289 46 675 6 379 -4 568 -43 830 -29 196
-120 587 -175 755 -81 244 -100 297 -123 345 -14 28 -59 124 -102 215 -142
308 -229 465 -315 574 -39 50 -86 120 -104 157 -54 106 -139 205 -444 512
-309 312 -385 379 -519 458 -48 28 -127 82 -177 119 -49 38 -146 98 -215 133
-69 35 -147 76 -175 90 -151 79 -471 215 -639 273 -90 31 -404 110 -493 124
-37 6 -103 22 -145 35 -57 18 -118 27 -235 34 -87 6 -185 15 -218 21 -76 13
-608 13 -746 0 -365 -35 -664 -85 -799 -134 -52 -18 -133 -46 -180 -61 -230
-74 -447 -163 -635 -262 -186 -97 -257 -138 -300 -175 -28 -22 -102 -75 -165
-116 -128 -83 -184 -128 -338 -270 -289 -266 -513 -520 -642 -727 -24 -38 -65
-99 -92 -134 -27 -35 -63 -91 -80 -125 -17 -33 -45 -86 -64 -116 -18 -30 -45
-86 -59 -123 -14 -38 -35 -87 -47 -110 -50 -98 -198 -529 -198 -576 0 -17 -18
-101 -40 -187 -22 -86 -45 -202 -51 -258 -6 -55 -17 -139 -25 -186 -17 -101
-25 -581 -12 -710 35 -347 94 -655 169 -885 74 -228 123 -365 151 -420 14 -28
31 -71 38 -95 6 -25 29 -72 50 -105 22 -33 50 -86 65 -118 14 -32 47 -86 73
-120 42 -56 88 -125 190 -287 19 -31 138 -159 271 -291 249 -249 232 -235 615
-494 215 -146 403 -232 746 -344 261 -85 397 -118 566 -136 71 -8 207 -24 302
-36 167 -20 179 -20 315 -5 78 8 200 20 271 26 151 13 165 15 406 74 202 49
353 98 470 153 41 19 105 45 142 58 37 13 93 41 125 62 32 22 94 58 137 82
136 72 346 244 568 464 232 230 352 369 441 510 34 54 89 140 121 190 33 51
70 121 84 157 13 36 32 81 43 100 24 45 77 203 99 300 10 41 38 156 63 255 51
206 61 305 62 590 0 156 -5 222 -27 370 -15 99 -39 221 -54 270 -14 50 -33
113 -40 141 -8 28 -26 78 -40 110 -15 33 -35 86 -46 119 -11 33 -35 85 -54
116 -18 31 -47 89 -63 128 -16 40 -36 80 -44 89 -92 108 -169 210 -201 264
-58 100 -263 296 -471 451 -138 102 -202 142 -340 211 -93 47 -186 89 -205 94
-19 6 -129 39 -245 75 -130 40 -237 67 -280 71 -38 3 -146 13 -240 22 -155 15
-180 15 -285 0 -436 -60 -532 -82 -676 -152 -61 -30 -117 -54 -125 -54 -31 -1
-110 -46 -293 -167 -281 -187 -406 -316 -586 -606 -115 -186 -232 -475 -245
-607 -3 -36 -12 -112 -20 -170 -22 -170 -14 -384 23 -565 36 -175 67 -263 126
-360 24 -38 62 -106 85 -150 57 -111 267 -337 377 -407 192 -122 353 -194 531
-239 121 -31 138 -32 313 -33 l185 0 130 46 c72 25 148 54 169 63 71 30 280
169 342 228 67 62 165 204 217 315 31 65 32 70 32 207 0 213 -32 295 -167 436
-124 130 -258 189 -426 189 -124 0 -267 -56 -420 -165 -55 -39 -70 -45 -114
-45 -62 0 -106 25 -135 77 -59 105 -69 246 -28 369 27 81 94 220 128 267 27
37 208 157 306 203 304 145 756 93 1076 -124 196 -133 253 -191 443 -452 13
-17 38 -83 114 -295 32 -91 41 -131 49 -230 18 -220 -8 -444 -75 -641 -43
-130 -155 -350 -212 -417 -24 -28 -74 -90 -111 -137 -92 -118 -139 -165 -206
-211 -31 -22 -85 -65 -120 -96 -37 -33 -102 -75 -161 -105 -54 -27 -115 -60
-135 -73 -43 -29 -313 -124 -431 -153 -140 -35 -421 -63 -515 -52 -44 5 -150
16 -235 24 -103 10 -182 23 -235 40 -44 14 -105 30 -135 37 -82 17 -421 165
-493 215 -34 24 -105 69 -157 100 -77 47 -125 87 -255 218 -145 145 -170 176
-256 311 -53 83 -101 166 -108 185 -8 19 -35 82 -61 140 -79 176 -98 223 -109
270 -6 25 -22 78 -35 119 -14 40 -31 112 -37 160 -6 47 -15 102 -19 121 -21
82 -30 194 -35 453 -5 265 -5 279 19 379 13 57 26 140 29 185 10 130 107 404
245 693 33 69 74 145 91 170 18 25 63 90 101 145 177 256 205 288 388 444 113
95 131 109 267 198 39 26 95 63 125 83 30 20 75 45 100 55 25 11 79 38 120 62
100 57 290 134 480 194 261 83 541 119 945 119 409 0 615 -33 1010 -158 88
-28 187 -59 220 -69 104 -30 409 -193 611 -326 144 -94 223 -156 318 -243 163
-151 377 -381 424 -457 20 -33 75 -117 121 -186 76 -114 275 -499 295 -571 4
-14 38 -122 76 -240 38 -118 76 -251 84 -295 43 -222 65 -360 71 -455 10 -149
12 -637 2 -685 -4 -22 -12 -98 -16 -170 -7 -102 -17 -157 -45 -255 -20 -69
-46 -178 -57 -243 -23 -136 -30 -160 -92 -317 -106 -271 -229 -527 -292 -610
-23 -30 -61 -91 -84 -135 -49 -92 -107 -176 -179 -257 -27 -31 -89 -110 -138
-175 -104 -140 -256 -299 -339 -356 -33 -22 -82 -59 -110 -82 -27 -23 -68 -53
-90 -67 -22 -14 -71 -54 -110 -88 -38 -34 -101 -80 -140 -102 -38 -23 -126
-77 -195 -120 -155 -99 -383 -210 -560 -274 -36 -12 -96 -35 -135 -49 -56 -22
-337 -98 -535 -145 -78 -19 -376 -60 -554 -76 -165 -15 -217 -16 -400 -6 -277
15 -636 67 -783 112 -33 10 -90 24 -125 30 -97 18 -423 127 -616 206 -103 43
-330 161 -422 220 -36 23 -87 51 -114 63 -27 12 -88 50 -135 85 -47 35 -120
85 -161 112 -41 26 -111 75 -155 108 -101 76 -378 335 -471 441 -39 44 -81 89
-94 100 -39 34 -145 177 -189 254 -23 41 -64 102 -90 135 -27 34 -67 100 -89
148 -22 48 -54 107 -72 133 -18 26 -43 73 -56 106 -13 32 -41 87 -62 121 -37
60 -71 140 -132 313 -15 44 -37 100 -47 125 -18 40 -63 194 -147 500 -14 52
-32 138 -41 190 -8 52 -22 133 -30 180 -17 91 -26 162 -51 390 -18 167 -21
628 -5 700 6 25 11 86 11 136 0 72 6 114 30 195 21 69 34 141 39 214 6 85 18
139 49 240 23 72 60 193 82 270 67 227 132 389 281 702 27 55 49 104 49 107 0
3 26 49 59 103 32 54 77 134 99 178 42 83 78 137 149 224 24 29 58 82 78 119
41 79 77 124 230 288 61 66 130 147 153 180 49 71 194 215 277 274 33 24 89
71 125 104 112 104 186 164 267 218 43 28 98 67 123 86 149 113 620 366 820
440 264 98 366 133 465 162 61 17 155 44 210 60 55 16 141 34 190 40 50 6 135
22 190 35 61 15 189 32 330 44 127 11 248 22 270 24 73 7 767 -1 930 -11z"/>
</g>
</svg>
